<?xml version="1.0" standalone="no"?>
<!DOCTYPE svg PUBLIC "-//W3C//DTD SVG 20010904//EN"
 "http://www.w3.org/TR/2001/REC-SVG-20010904/DTD/svg10.dtd">
<svg version="1.0" xmlns="http://www.w3.org/2000/svg"
 width="93.000000pt" height="93.000000pt" viewBox="0 0 93.000000 93.000000"
 preserveAspectRatio="xMidYMid meet">
<metadata>
Created by potrace 1.14, written by Peter Selinger 2001-2017
</metadata>
<g transform="translate(0.000000,93.000000) scale(0.100000,-0.100000)"
fill="#000000" stroke="none">
<path d="M335 848 c-32 -11 -91 -52 -113 -78 -42 -49 -67 -150 -41 -166 6 -4
40 -7 75 -7 35 0 64 -3 64 -6 0 -4 -9 -12 -21 -19 -18 -11 -24 -11 -38 2 -22
20 -31 20 -60 -5 -30 -25 -20 -37 13 -16 21 14 26 14 36 2 16 -19 44 -19 60 0
11 13 15 12 38 -5 24 -19 26 -19 44 -4 16 15 21 16 44 3 22 -11 29 -11 53 2
24 14 28 14 45 -3 18 -16 21 -16 47 -1 26 16 29 16 47 0 17 -15 20 -15 41 0
22 15 26 15 54 -2 37 -22 33 0 -6 29 -26 19 -27 19 -46 1 -19 -17 -22 -17 -47
-1 -24 17 -27 17 -45 0 -17 -15 -22 -16 -44 -4 -39 21 -30 27 37 26 35 -1 63
4 65 10 2 7 -61 10 -199 9 -246 0 -248 0 -248 32 0 62 64 142 140 176 58 26
205 28 262 3 77 -33 147 -120 148 -183 0 -22 -22 -30 -69 -24 -7 2 -11 -3 -9
-9 2 -6 7 -11 11 -11 4 1 22 1 41 1 43 0 53 24 36 86 -16 58 -69 117 -132 148
-46 23 -63 26 -152 25 -56 0 -114 -5 -131 -11z m165 -259 c0 -5 -9 -13 -20
-19 -16 -8 -25 -7 -42 4 -20 14 -24 14 -40 -1 -16 -14 -22 -14 -43 -3 -14 7
-25 16 -25 20 0 3 38 6 85 6 47 0 85 -3 85 -7z"/>
<path d="M184 516 c-2 -6 -2 -39 -1 -73 3 -45 1 -63 -8 -63 -17 0 -12 -69 6
-81 19 -12 66 -11 74 1 4 6 -8 10 -28 10 -34 0 -48 13 -40 38 6 17 235 17 264
0 17 -10 23 -10 26 0 3 9 40 12 135 12 128 0 129 0 126 -22 -3 -25 35 -23
-450 -28 -10 0 -18 -4 -18 -10 0 -15 463 -13 478 2 14 14 17 78 4 78 -5 0 -8
32 -7 70 1 39 -1 71 -4 72 -3 0 -129 2 -279 3 -190 1 -275 -2 -278 -9z m541
-26 c0 -13 -36 -15 -262 -16 -200 -1 -263 1 -263 11 0 6 2 14 4 16 3 3 121 5
263 4 223 0 258 -2 258 -15z m-205 -59 c-14 -23 -47 -61 -54 -61 -3 0 -21 17
-40 38 l-35 37 32 5 c18 3 49 3 69 1 32 -3 36 -6 28 -20z m-260 4 c0 -8 5 -15
10 -15 6 0 10 7 10 15 0 22 40 19 40 -2 1 -17 1 -17 14 0 19 25 30 21 60 -18
l27 -35 -99 0 c-107 0 -130 10 -117 50 8 24 55 29 55 5z m326 0 c4 -8 10 -12
15 -9 5 3 7 10 4 15 -4 5 5 9 19 9 19 0 24 -4 19 -16 -4 -12 -2 -15 8 -12 8 3
13 11 12 17 -2 6 10 11 26 11 33 0 46 -22 31 -51 -10 -17 -22 -19 -111 -19
l-100 0 27 35 c29 38 42 43 50 20z"/>
<path d="M0 185 c0 -3 9 -22 19 -43 19 -37 21 -43 21 -62 0 -5 5 -10 10 -10 6
0 10 9 10 20 0 12 9 39 20 60 16 31 17 40 7 40 -8 0 -19 -12 -26 -27 l-12 -27
-12 24 c-11 22 -37 40 -37 25z"/>
<path d="M121 164 c-26 -33 -26 -35 0 -68 23 -30 45 -33 77 -10 44 30 16 104
-39 104 -10 0 -27 -12 -38 -26z m63 -10 c9 -8 16 -19 16 -24 0 -10 -29 -40
-39 -40 -27 0 -40 47 -19 68 16 16 23 15 42 -4z"/>
<path d="M239 178 c-3 -35 4 -84 13 -95 14 -18 43 -16 62 3 20 19 23 108 4
102 -7 -3 -13 -20 -13 -39 -1 -43 -11 -60 -30 -52 -10 3 -15 20 -15 49 0 24
-4 44 -10 44 -5 0 -10 -6 -11 -12z"/>
<path d="M350 129 c0 -44 3 -59 13 -56 6 2 11 11 9 21 -4 22 6 20 28 -7 21
-25 37 -18 22 10 -7 13 -6 24 4 37 12 17 12 22 -3 38 -9 10 -29 18 -45 18 -28
0 -28 -1 -28 -61z m50 11 c-9 -6 -19 -5 -25 1 -6 6 -5 13 5 19 9 6 19 5 25 -1
6 -6 5 -13 -5 -19z"/>
<path d="M496 183 c-3 -3 -6 -30 -6 -60 0 -52 0 -53 30 -53 17 0 30 5 30 10 0
6 -7 10 -15 10 -15 0 -19 14 -16 62 1 27 -11 43 -23 31z"/>
<path d="M580 170 c-11 -11 -20 -29 -20 -40 0 -11 9 -29 20 -40 40 -40 104 -8
94 47 -9 52 -58 69 -94 33z m58 -12 c29 -29 4 -76 -33 -62 -18 7 -20 60 -2 67
19 8 22 8 35 -5z"/>
<path d="M712 174 c-42 -29 -18 -104 35 -104 26 0 57 35 50 55 -7 16 -57 21
-57 5 0 -5 7 -10 16 -10 17 0 15 -21 -3 -27 -12 -4 -43 23 -43 37 0 5 7 16 16
24 11 12 20 13 34 6 32 -17 45 -12 25 10 -22 24 -43 25 -73 4z"/>
<path d="M830 170 c-35 -35 -8 -100 42 -100 24 0 58 35 58 60 0 26 -34 60 -60
60 -11 0 -29 -9 -40 -20z m70 -40 c0 -31 -25 -47 -46 -29 -17 14 -18 56 -1 62
27 9 47 -5 47 -33z"/>
</g>
</svg>
